# AST/ASF file generated using VICON BodyLanguage
# -----------------------------------------------
:version 1.10
:name VICON
:units
  mass 1.0
  length 0.45
  angle deg
:documentation
   .ast/.asf automatically generated from VICON data using
   VICON BodyBuilder and BodyLanguage model FoxedUp or BRILLIANT.MOD
:root
   order TX TY TZ RX RY RZ
   axis XYZ
   position 0 0 0  
   orientation 0 0 0 
:bonedata
  begin
     id 1 
     name lhipjoint
     direction 0.702568 -0.596508 0.388042 
     length 2.56661 
     axis 0 0 0  XYZ
  end
  begin
     id 2 
     name lfemur
     direction 0.34202 -0.939693 0  
     length 6.58374  
     axis 0 0 20  XYZ
    dof rx ry rz
    limits (-160.0 20.0)
           (-70.0 70.0)
           (-60.0 70.0)
  end
  begin
     id 3 
     name ltibia
     direction 0.34202 -0.939693 0   
     length 6.62538   
     axis 0 0 20   XYZ
    dof rx
    limits (-10.0 170.0)
  end
  begin
     id 4 
     name lfoot
     direction 0.10455 -0.287249 0.952133   
     length 2.26699   
     axis -90 7.62852e-016 20   XYZ
    dof rx rz
    limits (-45.0 90.0)
           (-70.0 20.0)
  end
  begin
     id 5 
     name ltoes
     direction 1.53572e-011 -4.22322e-011 1   
     length 1.12949   
     axis -90 7.62852e-016 20   XYZ
    dof rx
    limits (-90.0 20.0)
  end
  begin
     id 6 
     name rhipjoint
     direction -0.728055 -0.574632 0.373811   
     length 2.66432  
     axis 0 0 0  XYZ 
  end
  begin
     id 7 
     name rfemur
     direction -0.34202 -0.939693 0   
     length 6.66732   
     axis 0 0 -20   XYZ
    dof rx ry rz
    limits (-160.0 20.0)
           (-70.0 70.0)
           (-70.0 60.0)
  end
  begin
     id 8 
     name rtibia
     direction -0.34202 -0.939693 0   
     length 6.59288   
     axis 0 0 -20   XYZ
    dof rx
    limits (-10.0 170.0)
 end
 begin
     id 9 
     name rfoot
     direction -0.119193 -0.327479 0.93731   
     length 2.38061  
     axis -90 -7.62852e-016 -20   XYZ
    dof rx rz
    limits (-45.0 90.0)
           (-20.0 70.0)
  end
  begin
     id 10 
     name rtoes
     direction -1.53547e-011 -4.21827e-011 1   
     length 1.17899   
     axis -90 -7.62852e-016 -20   XYZ
    dof rx
    limits (-90.0 20.0)
  end
  begin
     id 11 
     name lowerback
     direction -0.000416114 0.999912 -0.0132284   
     length 2.12109   
     axis 0 0 0   XYZ
    dof rx ry rz
    limits (-20.0 45.0)
           (-30.0 30.0)
           (-30.0 30.0)
  end
  begin
     id 12 
     name upperback
     direction -0.00136371 0.99809 0.0617608   
     length 2.10067   
     axis 0 0 0   XYZ
    dof rx ry rz
    limits (-20.0 45.0)
           (-30.0 30.0)
           (-30.0 30.0)
  end
  begin
     id 13 
     name thorax
     direction -3.43026e-005 0.997776 0.0666515   
     length 2.10618   
     axis 0 0 0   XYZ
    dof rx ry rz
    limits (-20.0 45.0)
           (-30.0 30.0)
           (-30.0 30.0)
  end
  begin
     id 14 
     name lowerneck
     direction 0.0398646 0.998418 0.0396592   
     length 1.83817   
     axis 0 0 0   XYZ
    dof rx ry rz
    limits (-20.0 45.0)
           (-30.0 30.0)
           (-30.0 30.0)
  end
  begin
     id 15 
     name upperneck
     direction -0.0367268 0.961527 -0.272244   
     length 1.81975   
     axis 0 0 0   XYZ
    dof rx ry rz
    limits (-20.0 45.0)
           (-30.0 30.0)
           (-30.0 30.0)
  end
  begin
     id 16
     name head
     direction -0.0182665 0.99536 -0.0944669  
     length 1.86026  
     axis 0 0 0   XYZ
    dof rx ry rz
    limits (-20.0 45.0)
           (-30.0 30.0)
           (-30.0 30.0)
  end
  begin
     id 17 
     name lclavicle
     direction 0.924239 0.361045 0.124212  
     length 3.26878  
     axis 0 0 0   XYZ
    dof ry rz
    limits (-20.0 10.0)
           (0.0 20.0)
  end
  begin
     id 18 
     name lhumerus
     direction 1 -4.48968e-011 -2.56583e-027   
     length 4.58538   
     axis 180 -30 -90   XYZ
    dof rx ry rz
    limits (-60.0 90.0)
           (-90.0 90.0)
           (-90.0 90.0)
  end
  begin
     id 19
     name lradius
     direction 1 -4.4898e-011 -5.50375e-027   
     length 2.68935   
     axis 180 -30 -90   XYZ
    dof rx
    limits (-10.0 170.0)
  end
  begin
     id 20
     name lwrist
     direction 1 -4.48939e-011 -1.48955e-026   
     length 1.34468   
     axis 9.0955e-015 90 90   XYZ
    dof ry
    limits (-180.0 0.0)
 end
  begin
     id 21 
     name lhand
     direction 1 -4.48936e-011 -2.97907e-026   
     length 0.585058   
     axis 1.90115e-014 90 90   XYZ
    dof rx rz
    limits (-90.0 90.0)
           (-45.0 45.0)
  end
  begin
     id 22 
     name lfingers
     direction 1 -4.49082e-011 -5.96235e-026   
     length 0.471689   
     axis 3.80223e-014 90 90   XYZ
    dof rx
    limits (0.0 90.0)
  end
  begin
     id 23
     name lthumb
     direction 0.707107 -6.3489e-011 0.707107   
     length 0.677253   
     axis -90 45 -3.84942e-014   XYZ
    dof rx rz
    limits (-45.0 45.0)
           (-45.0 45.0)
  end
  begin
     id 24 
     name rclavicle
     direction -0.923098 0.371783 0.0983239   
     length 3.19656  
     axis 0 0 0   XYZ 
    dof ry rz
    limits (-10.0 20.0)
           (-20.0 0.0)
  end
  begin
     id 25 
     name rhumerus
     direction -1 -4.48976e-011 -2.5492e-027  
     length 4.4745   
     axis 180 30 90   XYZ
    dof rx ry rz
    limits (-90.0 60.0)
           (-90.0 90.0)
           (-90.0 90.0)
  end
  begin
     id 26 
     name rradius
     direction -1 -4.48941e-011 -4.36555e-027   
     length 2.93896   
     axis 180 30 90   XYZ
    dof rx
    limits (-10.0 170.0)
  end
  begin
     id 27 
     name rwrist
     direction -1 -4.49044e-011 -1.49032e-026   
     length 1.46948   
     axis 9.0955e-015 -90 -90   XYZ
    dof ry
    limits (-180.0 0.0)
  end
  begin
     id 28
     name rhand
     direction -1 -4.48826e-011 -2.97749e-026   
     length 0.405092   
     axis 1.90115e-014 -90 -90   XYZ
    dof rx rz
    limits (-90.0 90.0)
           (-45.0 45.0)
  end
  begin
     id 29
     name rfingers
     direction -1 -4.49209e-011 -5.96602e-026   
     length 0.326596   
     axis 3.80223e-014 -90 -90   XYZ
    dof rx
    limits (0.0 90.0)
  end
  begin
     id 30
     name rthumb
     direction -0.707107 -6.34776e-011 0.707107   
     length 0.468928   
     axis -90 -45 3.84942e-014   XYZ
    dof rx rz
    limits (-45.0 45.0)
           (-45.0 45.0)
  end
:hierarchy
  begin
    root lhipjoint rhipjoint lowerback
    lhipjoint lfemur
    lfemur ltibia
    ltibia lfoot
    lfoot ltoes
    rhipjoint rfemur
    rfemur rtibia
    rtibia rfoot
    rfoot rtoes
    lowerback upperback
    upperback thorax
    thorax lowerneck lclavicle rclavicle
    lowerneck upperneck
    upperneck head
    lclavicle lhumerus
    lhumerus lradius
    lradius lwrist
    lwrist lhand lthumb
    lhand lfingers
    rclavicle rhumerus
    rhumerus rradius
    rradius rwrist
    rwrist rhand rthumb
    rhand rfingers
  end

#!OML:ASF H:\Punching\Project 1\Capture day 1\Session 1\female.ASF
:FULLY-SPECIFIED
:DEGREES
415
root -1.55962 14.9036 10.4759 16.5965 14.849 4.59255
lowerback -0.0391033 -1.65443 -1.22862
upperback -6.87712 -2.3129 -1.0238
thorax -7.13291 -1.09966 -0.241364
lowerneck -11.7195 -4.0547 2.59444
upperneck 32.7284 -7.80653 3.67066
head 12.9543 -2.61441 -0.137319
rclavicle -1.90523e-014 -1.32192e-014
rhumerus 37.9255 -24.4706 -27.4789
rradius 67.5471
rwrist 21.1361
rhand -24.8534 7.66437
rfingers 7.12502
rthumb 1.65312 -22.309
lclavicle -1.90523e-014 -1.32192e-014
lhumerus -40.9809 -32.289 91.6267
lradius 129.503
lwrist 3.72931
lhand -19.2563 8.1014
lfingers 7.12502
lthumb 7.05772 37.9637
rfemur -43.7682 -9.05637 12.4478
rtibia 56.7825
rfoot -22.2596 -12.6048
rtoes -6.12776
lfemur 3.19329 -12.5152 -5.45558
ltibia 0
lfoot -12.4277 16.859
ltoes -8.77799
416
root -1.54732 14.908 10.4605 16.4802 14.7254 4.60309
lowerback 0.0292169 -1.59881 -1.14562
upperback -6.82142 -2.2419 -1.12907
thorax -7.12037 -1.07336 -0.400492
lowerneck -11.732 -4.08163 2.60647
upperneck 32.7942 -7.89933 3.80192
head 12.9943 -2.63344 -0.102839
rclavicle 5.9946e-016 2.52457e-014
rhumerus 38.1499 -23.9193 -27.9212
rradius 67.7646
rwrist 21.1296
rhand -24.7378 7.58819
rfingers 7.12502
rthumb 1.76478 -22.3843
lclavicle 5.9946e-016 2.52457e-014
lhumerus -40.3175 -32.7979 91.3223
lradius 129.426
lwrist 3.65673
lhand -19.2748 8.13645
lfingers 7.12502
lthumb 7.03993 37.9994
rfemur -43.6342 -8.91284 12.3245
rtibia 56.6171
rfoot -22.1375 -12.6322
rtoes -6.1139
lfemur 3.31044 -12.3524 -5.51078
ltibia 3.18055e-014
lfoot -12.242 16.853
ltoes -8.48317
417
root -1.53319 14.9128 10.4433 16.3575 14.6218 4.60691
lowerback 0.101907 -1.55058 -1.09366
upperback -6.77072 -2.18051 -1.20692
thorax -7.11307 -1.04889 -0.513042
lowerneck -11.7361 -4.10681 2.60428
upperneck 32.8424 -7.97541 3.90724
head 13.0238 -2.65112 -0.0731539
rclavicle -7.47927e-015 1.32192e-014
rhumerus 38.3965 -23.3021 -28.3368
rradius 68.034
rwrist 20.7118
rhand -24.5542 7.49446
rfingers 7.12502
rthumb 1.94211 -22.4764
lclavicle -7.47927e-015 1.32192e-014
lhumerus -39.6436 -33.2815 91.0464
lradius 129.333
lwrist 3.51262
lhand -19.2752 8.1745
lfingers 7.12502
lthumb 7.03949 38.0374
rfemur -43.4757 -8.78107 12.2002
rtibia 56.4192
rfoot -22.007 -12.6602
rtoes -6.12088
lfemur 3.43063 -12.2079 -5.55888
ltibia 2.22639e-014
lfoot -12.0316 16.946
ltoes -8.31433
418
root -1.51739 14.9179 10.4242 16.2343 14.5362 4.59575
lowerback 0.172505 -1.51001 -1.06781
upperback -6.72537 -2.12857 -1.25325
thorax -7.10787 -1.02638 -0.577624
lowerneck -11.747 -4.12733 2.5955
upperneck 32.8864 -8.02999 3.97361
head 13.0505 -2.66527 -0.0544005
rclavicle 4.29561e-015 -6.4605e-015
rhumerus 38.6627 -22.6049 -28.7106
rradius 68.3419
rwrist 19.9528
rhand -24.3897 7.33336
rfingers 7.12502
rthumb 2.10095 -22.636
lclavicle 4.29561e-015 -6.4605e-015
lhumerus -38.9602 -33.732 90.8015
lradius 129.225
lwrist 3.32236
lhand -19.2559 8.22
lfingers 7.12502
lthumb 7.05814 38.0823
rfemur -43.306 -8.65241 12.0835
rtibia 56.1912
rfoot -21.8601 -12.6897
rtoes -6.14562
lfemur 3.54532 -12.0754 -5.58703
ltibia 6.36111e-015
lfoot -11.7894 17.0997
ltoes -8.3195
419
root -1.49957 14.9237 10.4034 16.1104 14.473 4.55688
lowerback 0.23363 -1.47984 -1.05236
upperback -6.68936 -2.08881 -1.26342
thorax -7.10531 -1.008 -0.598127
lowerneck -11.7518 -4.13897 2.58659
upperneck 32.9326 -8.05579 3.99385
head 13.0735 -2.67289 -0.0490724
rclavicle 2.00555e-014 1.25234e-014
rhumerus 38.9464 -21.8206 -29.0398
rradius 68.6772
rwrist 18.9096
rhand -24.1342 7.167
rfingers 7.12502
rthumb 2.3478 -22.7998
lclavicle 2.00555e-014 1.25234e-014
lhumerus -38.2778 -34.1431 90.5932
lradius 129.106
lwrist 3.11909
lhand -19.2159 8.27652
lfingers 7.12502
lthumb 7.09673 38.1375
rfemur -43.1252 -8.52988 11.9876
rtibia 55.9338
rfoot -21.6961 -12.7143
rtoes -6.17551
lfemur 3.65167 -11.9549 -5.57966
ltibia 2.22639e-014
lfoot -11.5169 17.2596
ltoes -8.47862
420
root -1.47932 14.9299 10.381 15.9883 14.4286 4.49328
lowerback 0.28035 -1.45974 -1.04344
upperback -6.66309 -2.06087 -1.24288
thorax -7.10342 -0.99402 -0.582481
lowerneck -11.7431 -4.13556 2.59145
upperneck 32.9778 -8.04623 3.96736
head 13.0889 -2.6698 -0.0586127
rclavicle 1.14612e-015 -6.85807e-015
rhumerus 39.2467 -20.9506 -29.3388
rradius 69.0262
rwrist 17.667
rhand -23.7924 6.98845
rfingers 7.12502
rthumb 2.67787 -22.9745
lclavicle 1.14612e-015 -6.85807e-015
lhumerus -37.6004 -34.5157 90.4188
lradius 128.976
lwrist 2.9421
lhand -19.1693 8.34146
lfingers 7.12502
lthumb 7.14176 38.201
rfemur -42.9395 -8.41967 11.9088
rtibia 55.6512
rfoot -21.5092 -12.7262
rtoes -6.22007
lfemur 3.7478 -11.8438 -5.54131
ltibia 1.27222e-014
lfoot -11.2214 17.3705
ltoes -8.73511
421
root -1.45644 14.9367 10.3569 15.8677 14.4013 4.39569
lowerback 0.309092 -1.44866 -1.02507
upperback -6.64632 -2.04275 -1.19458
thorax -7.10059 -0.984526 -0.542912
lowerneck -11.7242 -4.12032 2.61112
upperneck 33.0279 -8.00978 3.9021
head 13.1008 -2.65822 -0.0814979
rclavicle -2.62194e-014 5.76476e-015
rhumerus 39.5573 -20.0024 -29.6191
rradius 69.3769
rwrist 16.3139
rhand -23.3711 6.79584
rfingers 7.12502
rthumb 3.0847 -23.1616
lclavicle -2.62194e-014 5.76476e-015
lhumerus -36.922 -34.8611 90.2698
lradius 128.84
lwrist 2.82563
lhand -19.1245 8.41849
lfingers 7.12502
lthumb 7.18493 38.2765
rfemur -42.7536 -8.3204 11.8569
rtibia 55.3459
rfoot -21.3 -12.7216
rtoes -6.27385
lfemur 3.82987 -11.7372 -5.46224
ltibia 1.27222e-014
lfoot -10.918 17.3741
ltoes -9.06449
422
root -1.43053 14.9436 10.3314 15.7469 14.3867 4.27174
lowerback 0.317979 -1.44397 -0.995445
upperback -6.63669 -2.03132 -1.12756
thorax -7.0936 -0.9784 -0.490092
lowerneck -11.6902 -4.09589 2.64453
upperneck 33.0804 -7.95432 3.81252
head 13.1082 -2.64005 -0.112978
rclavicle 6.18717e-015 8.74653e-015
rhumerus 39.8649 -18.9874 -29.889
rradius 69.7243
rwrist 14.9171
rhand -22.8093 6.60212
rfingers 7.12502
rthumb 3.62724 -23.3468
lclavicle 6.18717e-015 8.74653e-015
lhumerus -36.234 -35.1943 90.1378
lradius 128.699
lwrist 2.79623
lhand -19.0998 8.51475
lfingers 7.12502
lthumb 7.20886 38.372
rfemur -42.5645 -8.24166 11.8248
rtibia 55.0212
rfoot -21.067 -12.699
rtoes -6.38536
lfemur 3.8991 -11.6342 -5.35489
ltibia 3.18055e-015
lfoot -10.6072 17.2485
ltoes -9.48133
